<svg xmlns="http://www.w3.org/2000/svg" version="1.1" xmlns:xlink="http://www.w3.org/1999/xlink" xmlns:svgjs="http://svgjs.dev/svgjs" width="1500" height="1500" viewBox="0 0 1500 1500"><rect width="1500" height="1500" fill="#ffffff"></rect><g transform="matrix(0.6666666666666666,0,0,0.6666666666666666,249.39393939393938,473.9073379615892)"><svg viewBox="0 0 396 218" data-background-color="#39508f" preserveAspectRatio="xMidYMid meet" height="825" width="1500" xmlns="http://www.w3.org/2000/svg" xmlns:xlink="http://www.w3.org/1999/xlink"><g id="tight-bounds" transform="matrix(1,0,0,1,0.2400000000000091,0.4330914988610175)"><svg viewBox="0 0 395.52 217.13381700227797" height="217.13381700227797" width="395.52"><g><svg viewBox="0 0 395.52 217.13381700227797" height="217.13381700227797" width="395.52"><g transform="matrix(1,0,0,1,0,130.96452418220957)"><svg viewBox="0 0 395.52 86.16929282006839" height="86.16929282006839" width="395.52"><g id="textblocktransform"><svg viewBox="0 0 395.52 86.16929282006839" height="86.16929282006839" width="395.52" id="textblock"><g><svg viewBox="0 0 395.52 50.316684054605524" height="50.316684054605524" width="395.52"><g transform="matrix(1,0,0,1,0,0)"><svg width="395.52" viewBox="3.52 -44.58 394.38 50.176562499999996" height="50.316684054605524" data-palette-color="#f8f8f8"><path d="M16.46 0L3.52 0 3.52-42.97 16.36-42.97 16.36-38.77 8.57-38.77 8.57-24.07 15.94-24.07 15.94-19.87 8.57-19.87 8.57-4.2 16.46-4.2 16.46 0ZM27.46 0.32L27.46 0.32Q24.14 0.32 22.68-2.26 21.21-4.83 21.19-9.4L21.19-9.4 21.19-12.96Q21.19-15.38 22.02-16.98 22.85-18.58 24.36-19.65 25.88-20.73 27.93-21.59 29.98-22.46 32.42-23.44L32.42-23.44 32.42-26.27Q32.42-28.61 32.27-30.07 32.13-31.52 31.53-32.2 30.93-32.89 29.61-32.89L29.61-32.89Q28.32-32.89 27.67-32.2 27.02-31.52 26.83-30.05 26.63-28.59 26.63-26.25L26.63-26.25 26.63-24.98 21.65-24.98 21.65-26.03Q21.65-28.37 21.95-30.38 22.24-32.4 23.07-33.89 23.9-35.38 25.5-36.22 27.1-37.06 29.71-37.06L29.71-37.06Q32.2-37.06 33.73-36.27 35.25-35.47 36.07-33.94 36.89-32.4 37.18-30.14 37.47-27.88 37.47-24.93L37.47-24.93 37.47 0 32.44 0 32.44-3.17Q32.22-2.44 31.59-1.62 30.95-0.81 29.93-0.24 28.9 0.32 27.46 0.32ZM28.88-3.74L28.88-3.74Q30.2-3.74 31.15-4.58 32.1-5.42 32.42-6.25L32.42-6.25 32.42-20.19Q30.54-19.36 29.33-18.69 28.12-18.02 27.45-17.29 26.78-16.55 26.51-15.53 26.24-14.5 26.24-12.94L26.24-12.94 26.24-9.55Q26.24-6.45 26.78-5.09 27.32-3.74 28.88-3.74ZM51.34 5.59L51.34 5.59Q48.82 5.66 46.81 5.03 44.79 4.39 43.35 3.25L43.35 3.25 45.16-0.17Q46.24 0.56 47.7 1.12 49.16 1.68 51.09 1.64L51.09 1.64Q52.8 1.59 53.74 0.35 54.68-0.88 54.68-2.95L54.68-2.95 54.68-6.45Q53.97-4.64 52.73-4.03 51.48-3.42 49.9-3.42L49.9-3.42Q47.33-3.42 45.93-4.91 44.53-6.4 43.98-8.98 43.43-11.57 43.43-14.84L43.43-14.84 43.43-25.34Q43.43-28.69 44.07-31.35 44.72-34.01 46.24-35.56 47.75-37.11 50.34-37.06L50.34-37.06Q51.9-37.04 53.03-36.28 54.17-35.52 54.68-33.94L54.68-33.94 54.68-36.62 59.69-36.62 59.69-3.42Q59.69-1.86 59.31-0.29 58.93 1.27 58.02 2.58 57.1 3.88 55.48 4.7 53.85 5.52 51.34 5.59ZM51.83-7.4L51.83-7.4Q52.8-7.4 53.44-7.98 54.07-8.57 54.38-10.17 54.68-11.77 54.68-14.77L54.68-14.77 54.68-26.07Q54.68-29.42 54.08-31.15 53.49-32.89 51.58-32.89L51.58-32.89Q50.19-32.89 49.52-32.02 48.85-31.15 48.65-29.64 48.46-28.13 48.46-26.12L48.46-26.12 48.46-14.72Q48.46-11.08 49.12-9.24 49.78-7.4 51.83-7.4ZM71.72 0L66.72 0 66.72-43.43 71.72-43.43 71.72 0ZM86.49 0.44L86.49 0.44Q83.85 0.44 82.25-0.48 80.65-1.39 79.82-3.08 78.99-4.76 78.71-7.12 78.43-9.47 78.43-12.33L78.43-12.33 78.43-25.27Q78.43-27.86 78.8-30.02 79.16-32.18 80.07-33.75 80.97-35.33 82.58-36.19 84.19-37.06 86.68-37.06L86.68-37.06Q89.2-37.06 90.74-36.18 92.28-35.3 93.07-33.7 93.86-32.1 94.13-29.9 94.4-27.69 94.4-25.05L94.4-25.05 94.4-18.14 83.46-18.14 83.46-10.84Q83.46-7.37 83.94-5.55 84.41-3.74 86.54-3.74L86.54-3.74Q87.93-3.74 88.53-4.6 89.13-5.47 89.26-7.04 89.39-8.62 89.39-10.77L89.39-10.77 89.39-13.72 94.3-13.72 94.3-12.16Q94.3-9.3 94.07-6.98 93.84-4.66 93.08-3 92.32-1.34 90.75-0.45 89.17 0.44 86.49 0.44ZM83.44-26.03L83.44-21.53 89.39-21.53 89.39-26.2Q89.39-28.39 89.25-29.9 89.1-31.4 88.54-32.17 87.98-32.93 86.68-32.93L86.68-32.93Q85.24-32.93 84.55-32.06 83.85-31.18 83.64-29.63 83.44-28.08 83.44-26.03L83.44-26.03ZM117.54 0L112.49 0 112.49-42.97 121.49-42.97Q124.91-42.97 126.55-41.76 128.18-40.55 128.68-38.12 129.18-35.69 129.18-32.01L129.18-32.01Q129.18-28.03 128.38-25.68 127.57-23.34 125.25-22.66L125.25-22.66Q126.43-22.46 127.19-21.66 127.96-20.85 128.4-19.14 128.84-17.43 129.03-14.56 129.21-11.69 129.21-7.35L129.21-7.35Q129.21-6.93 129.21-6.15 129.21-5.37 129.23-4.44 129.26-3.52 129.29-2.61 129.33-1.71 129.4-1.01 129.48-0.32 129.6 0L129.6 0 124.57 0Q124.47-0.22 124.4-0.98 124.33-1.73 124.28-2.98 124.23-4.22 124.2-5.94 124.18-7.67 124.18-9.8 124.18-11.94 124.18-14.48L124.18-14.48Q124.18-16.92 123.97-18.2 123.76-19.48 123-19.98 122.23-20.48 120.54-20.58L120.54-20.58 117.54-20.75 117.54 0ZM117.54-38.96L117.54-24.46 120.76-24.46Q122.15-24.46 122.9-25.01 123.64-25.56 123.91-27.21 124.18-28.86 124.18-32.15L124.18-32.15 124.18-32.45Q124.18-35.18 123.92-36.58 123.67-37.99 122.93-38.48 122.2-38.96 120.71-38.96L120.71-38.96 117.54-38.96ZM143.1 0.44L143.1 0.44Q140.51 0.44 138.9-0.45 137.29-1.34 136.42-2.99 135.55-4.64 135.24-6.95 134.92-9.25 134.92-12.11L134.92-12.11 134.92-25.07Q134.92-28.52 135.58-31.23 136.24-33.94 138.01-35.5 139.78-37.06 143.1-37.06L143.1-37.06Q145.59-37.06 147.17-36.17 148.76-35.28 149.64-33.65 150.52-32.03 150.85-29.85 151.18-27.66 151.18-25.07L151.18-25.07 151.18-12.11Q151.18-9.3 150.89-7.01 150.59-4.71 149.75-3.04 148.91-1.37 147.31-0.46 145.71 0.44 143.1 0.44ZM143.1-3.74L143.1-3.74Q144.42-3.74 145.06-4.61 145.71-5.49 145.93-7.07 146.15-8.64 146.15-10.72L146.15-10.72 146.15-26.07Q146.15-28.13 145.93-29.65 145.71-31.18 145.05-32.03 144.39-32.89 143.1-32.89L143.1-32.89Q141.73-32.89 141.05-32.03 140.36-31.18 140.16-29.65 139.95-28.13 139.95-26.07L139.95-26.07 139.95-10.72Q139.95-8.64 140.16-7.07 140.36-5.49 141.05-4.61 141.73-3.74 143.1-3.74ZM165.41 0.44L165.41 0.44Q162.75 0.44 161.13-0.46 159.5-1.37 158.66-3.06 157.82-4.76 157.52-7.12 157.23-9.47 157.23-12.35L157.23-12.35 157.23-24.61Q157.23-28.27 157.84-31.08 158.45-33.89 160.23-35.47 162.02-37.06 165.53-37.06L165.53-37.06Q167.97-37.06 169.47-36.25 170.98-35.45 171.77-33.94 172.56-32.42 172.84-30.32 173.12-28.22 173.12-25.66L173.12-25.66 173.12-23.12 168.19-23.12 168.19-26.34Q168.19-28.44 168.06-29.87 167.92-31.3 167.36-32.03 166.8-32.76 165.48-32.76L165.48-32.76Q164.09-32.76 163.41-31.97 162.72-31.18 162.49-29.7 162.26-28.22 162.26-26.2L162.26-26.2 162.26-10.62Q162.26-8.35 162.46-6.85 162.65-5.35 163.31-4.6 163.97-3.86 165.34-3.86L165.34-3.86Q166.65-3.86 167.25-4.65 167.85-5.44 168.02-6.95 168.19-8.45 168.19-10.52L168.19-10.52 168.19-14.06 173.12-14.06 173.12-11.69Q173.12-8.98 172.86-6.76 172.59-4.54 171.79-2.93 171-1.32 169.46-0.44 167.92 0.44 165.41 0.44ZM184.28 0L179.27 0 179.27-43.43 184.28-43.43 184.28-19.21 191.48-36.62 196.54-36.62 188.82-18.53 196.95 0 191.8 0 184.28-17.82 184.28 0ZM220.99 0L213.08 0 213.08-42.97 221.16-42.97Q224.53-42.97 226.41-41.56 228.29-40.16 229.05-37.55 229.81-34.94 229.81-31.3L229.81-31.3 229.83-12.43Q229.83-8.08 228.96-5.33 228.1-2.59 226.16-1.29 224.22 0 220.99 0L220.99 0ZM218.11-38.96L218.11-4.08 220.7-4.08Q222.07-4.08 222.97-4.68 223.87-5.27 224.33-6.91 224.78-8.54 224.78-11.65L224.78-11.65 224.78-31.42Q224.78-35.47 223.83-37.22 222.87-38.96 220.7-38.96L220.7-38.96 218.11-38.96ZM243.94 0.44L243.94 0.44Q241.3 0.44 239.7-0.48 238.1-1.39 237.27-3.08 236.44-4.76 236.16-7.12 235.88-9.47 235.88-12.33L235.88-12.33 235.88-25.27Q235.88-27.86 236.25-30.02 236.62-32.18 237.52-33.75 238.42-35.33 240.03-36.19 241.64-37.06 244.14-37.06L244.14-37.06Q246.65-37.06 248.19-36.18 249.73-35.3 250.52-33.7 251.31-32.1 251.58-29.9 251.85-27.69 251.85-25.05L251.85-25.05 251.85-18.14 240.91-18.14 240.91-10.84Q240.91-7.37 241.39-5.55 241.86-3.74 243.99-3.74L243.99-3.74Q245.38-3.74 245.98-4.6 246.58-5.47 246.71-7.04 246.85-8.62 246.85-10.77L246.85-10.77 246.85-13.72 251.75-13.72 251.75-12.16Q251.75-9.3 251.52-6.98 251.29-4.66 250.53-3 249.77-1.34 248.2-0.45 246.63 0.44 243.94 0.44ZM240.89-26.03L240.89-21.53 246.85-21.53 246.85-26.2Q246.85-28.39 246.7-29.9 246.55-31.4 245.99-32.17 245.43-32.93 244.14-32.93L244.14-32.93Q242.69-32.93 242-32.06 241.3-31.18 241.1-29.63 240.89-28.08 240.89-26.03L240.89-26.03ZM264.76 0.49L264.76 0.49Q260.86 0.49 258.83-1.97 256.8-4.42 256.8-10.11L256.8-10.11 256.8-12.87 261.66-12.87 261.66-10.13Q261.66-7.06 262.33-5.42 263-3.78 264.54-3.78L264.54-3.78Q266.08-3.78 266.8-4.79 267.52-5.79 267.52-8.37L267.52-8.37Q267.52-9.67 267.13-10.95 266.74-12.23 265.93-13.49 265.13-14.75 263.86-15.94L263.86-15.94 261.27-18.41Q258.95-20.63 257.73-23.13 256.51-25.63 256.51-28.44L256.51-28.44Q256.51-32.89 258.61-34.97 260.71-37.06 264.4-37.06L264.4-37.06Q266.86-37.06 268.55-35.99 270.23-34.91 271.09-32.42 271.94-29.93 271.94-25.63L271.94-25.63 271.94-23.88 267.18-23.88 267.18-26.42Q267.18-29.49 266.58-31.13 265.98-32.76 264.45-32.76L264.45-32.76Q262.96-32.76 262.21-31.9 261.47-31.03 261.39-28.74L261.39-28.74Q261.37-27.56 261.7-26.37 262.03-25.17 262.78-24 263.54-22.83 264.74-21.7L264.74-21.7 267.37-19.24Q269.94-16.87 271.24-14.15 272.55-11.43 272.55-8.4L272.55-8.4Q272.55-4.25 270.66-1.88 268.77 0.49 264.76 0.49ZM282.66 0L277.63 0 277.63-36.62 282.66-36.62 282.66 0ZM282.66-39.99L277.63-39.99 277.63-44.58 282.66-44.58 282.66-39.99ZM297.18 5.59L297.18 5.59Q294.66 5.66 292.65 5.03 290.64 4.39 289.2 3.25L289.2 3.25 291-0.17Q292.08 0.56 293.54 1.12 295.01 1.68 296.94 1.64L296.94 1.64Q298.64 1.59 299.58 0.35 300.52-0.88 300.52-2.95L300.52-2.95 300.52-6.45Q299.82-4.64 298.57-4.03 297.33-3.42 295.74-3.42L295.74-3.42Q293.18-3.42 291.77-4.91 290.37-6.4 289.82-8.98 289.27-11.57 289.27-14.84L289.27-14.84 289.27-25.34Q289.27-28.69 289.92-31.35 290.56-34.01 292.08-35.56 293.59-37.11 296.18-37.06L296.18-37.06Q297.74-37.04 298.88-36.28 300.01-35.52 300.52-33.94L300.52-33.94 300.52-36.62 305.53-36.62 305.53-3.42Q305.53-1.86 305.15-0.29 304.77 1.27 303.86 2.58 302.94 3.88 301.32 4.7 299.69 5.52 297.18 5.59ZM297.67-7.4L297.67-7.4Q298.64-7.4 299.28-7.98 299.91-8.57 300.22-10.17 300.52-11.77 300.52-14.77L300.52-14.77 300.52-26.07Q300.52-29.42 299.93-31.15 299.33-32.89 297.42-32.89L297.42-32.89Q296.03-32.89 295.36-32.02 294.69-31.15 294.49-29.64 294.3-28.13 294.3-26.12L294.3-26.12 294.3-14.72Q294.3-11.08 294.96-9.24 295.62-7.4 297.67-7.4ZM317.46 0L312.46 0 312.46-36.62 317.46-36.62 317.46-32.74Q317.95-34.45 319.55-35.77 321.15-37.08 323.37-37.08L323.37-37.08Q326.13-37.08 327.67-35.13 329.21-33.18 329.21-29.2L329.21-29.2 329.21 0 324.2 0 324.2-29.17Q324.2-31.13 323.32-32.01 322.45-32.89 321.08-32.89L321.08-32.89Q320.08-32.89 319.25-32.45 318.42-32.01 317.94-31.08 317.46-30.15 317.46-28.69L317.46-28.69 317.46 0ZM361.16 0L348.17 0 348.17-42.97 353.23-42.97 353.23-4.17 361.16-4.17 361.16 0ZM378.13 0L365.14 0 365.14-42.97 370.19-42.97 370.19-4.17 378.13-4.17 378.13 0ZM389.57 0.51L389.57 0.51Q386.45 0.51 384.59-1.01 382.74-2.54 381.93-5.49 381.13-8.45 381.13-12.67L381.13-12.67 381.13-30.57Q381.13-33.4 381.49-35.75 381.86-38.11 382.8-39.83 383.74-41.55 385.42-42.49 387.11-43.43 389.74-43.43L389.74-43.43Q392.26-43.43 393.85-42.54 395.43-41.65 396.31-40 397.19-38.35 397.52-36.1 397.85-33.84 397.85-31.1L397.85-31.1 397.85-26.34 392.89-26.34 392.89-31.13Q392.89-35.13 392.32-37.12 391.75-39.11 389.74-39.11L389.74-39.11Q387.62-39.11 386.9-37.07 386.18-35.03 386.18-31.15L386.18-31.15 386.18-12.55Q386.18-9.42 386.45-7.48 386.72-5.54 387.46-4.66 388.21-3.78 389.6-3.78L389.6-3.78Q391.62-3.78 392.26-5.83 392.89-7.89 392.89-12.57L392.89-12.57 392.89-17.33 397.9-17.33 397.9-12.62Q397.9-8.33 397.15-5.4 396.41-2.47 394.6-0.98 392.8 0.51 389.57 0.51Z" opacity="1" transform="matrix(1,0,0,1,0,0)" fill="#000000" class="wordmark-text-0" data-fill-palette-color="primary" id="text-0"></path></svg></g></svg></g><g transform="matrix(1,0,0,1,0,62.195245559480576)"><svg viewBox="0 0 395.52 23.97404726058781" height="23.97404726058781" width="395.52"><g transform="matrix(1,0,0,1,0,0)"><svg width="395.52" viewBox="0.05 -34.65 763.7700000000001 46.3" height="23.97404726058781" data-palette-color="#ffdc00"><path d="M20.55-19.55L20.85-19.2 20.55-16.8Q19.1-16.9 17.6-17 16.1-17.1 14.65-17.1L14.65-17.1Q13.2-17.1 11.7-17.1 10.2-17.1 9.2-16.95 8.2-16.8 8.2-16.35L8.2-16.35 8.2-9.4Q8.2-8 8.33-6.38 8.45-4.75 8.95-3.8L8.95-3.8Q9.5-2.85 10.48-2.53 11.45-2.2 13.75-2.2L13.75-2.2Q14.65-2.2 15.45-2.23 16.25-2.25 17.4-2.3 18.55-2.35 20.48-2.5 22.4-2.65 25.45-2.9L25.45-2.9 25.7-2.65 25.05 0 5.65 0Q4.9-0.4 4.63-1.35 4.35-2.3 4.35-3.3L4.35-3.3 4.35-27.9Q4.35-28.45 4.3-29.4 4.25-30.35 3.9-31.1L3.9-31.1Q3.7-31.6 2.78-32.02 1.85-32.45 0.1-32.7L0.1-32.7 0.05-33.7 0.4-34.05 7.8-34.1Q9.55-34.1 11.7-34.18 13.85-34.25 16-34.33 18.15-34.4 19.9-34.4L19.9-34.4Q20.6-34.4 21.15-34.4 21.7-34.4 22.2-34.35L22.2-34.35 22.1-31.85 21.9-31.5Q20.6-31.6 18.88-31.68 17.15-31.75 15.5-31.83 13.85-31.9 12.73-31.95 11.6-32 11.45-32L11.45-32 9.45-32Q8.7-31.85 8.47-30.68 8.25-29.5 8.25-28.2L8.25-28.2 8.25-19.9Q8.25-19.25 9.2-19.23 10.15-19.2 11.55-19.2L11.55-19.2Q13.55-19.2 16.05-19.3 18.55-19.4 20.55-19.55L20.55-19.55ZM40.35-5.6L40.35-5.6 40.9-5.6 41.45-5Q40.6-3.7 39.45-2.4 38.3-1.1 36.9-0.28 35.5 0.55 33.85 0.55L33.85 0.55Q32.6 0.55 31.67-0.03 30.75-0.6 30.25-2.13 29.75-3.65 29.75-6.5L29.75-6.5 30.1-25.4Q30.1-26.65 30.07-28.08 30.05-29.5 29.85-30.4L29.85-30.4Q29.7-31.2 28.95-31.48 28.2-31.75 27.25-31.8 26.3-31.85 25.5-31.9L25.5-31.9 25.5-33.05 25.8-33.3 34.05-34.3 34.35-33.95Q34.2-28.7 33.92-23.45 33.65-18.2 33.65-12.95L33.65-12.95Q33.65-10.5 33.62-8.3 33.6-6.1 34.07-4.73 34.55-3.35 36.05-3.25L36.05-3.25Q37.3-3.25 38.35-4.03 39.4-4.8 40.35-5.6ZM62.85-17L62.85-17Q62.85-16.55 62.52-16.35 62.2-16.15 61.8-15.95L61.8-15.95 47.7-9.85Q47.85-8.3 48.52-6.65 49.2-5 50.57-3.9 51.95-2.8 54.15-2.8L54.15-2.8Q56.2-2.8 58.17-3.85 60.15-4.9 61.85-6.2L61.85-6.2 62.4-6.1 63.05-5.2Q61.5-3.75 59.67-2.43 57.85-1.1 55.82-0.25 53.8 0.6 51.65 0.6L51.65 0.6Q49.15 0.6 47.52-0.45 45.9-1.5 45-3.23 44.1-4.95 43.72-7.08 43.35-9.2 43.35-11.3L43.35-11.3Q43.35-13.5 43.9-15.6 44.45-17.7 45.9-19.4L45.9-19.4Q47.75-21.55 50.32-22.73 52.9-23.9 55.75-23.9L55.75-23.9Q59-23.9 60.92-21.9 62.85-19.9 62.85-17ZM54-21.9L54-21.9Q52.75-21.9 51.67-21.35 50.6-20.8 49.8-19.8L49.8-19.8Q48.35-18.25 47.92-16.55 47.5-14.85 47.5-13L47.5-13Q47.5-12.8 47.52-12.58 47.55-12.35 47.6-12.1L47.6-12.1 47.8-11.9 57.9-15.9Q58.15-16 58.35-16.3 58.55-16.6 58.55-17.2L58.55-17.2Q58.55-18.25 58-19.35 57.45-20.45 56.42-21.18 55.4-21.9 54-21.9ZM82.19-21.25L82.19-21.25 84.69-23Q84.84-23.1 85.09-23.1L85.09-23.1Q85.79-23.1 86.59-21.7 87.39-20.3 87.39-18.1L87.39-18.1Q87.39-16.05 86.54-14.18 85.69-12.3 84.64-10.6L84.64-10.6Q82.94-7.9 80.92-5.5 78.89-3.1 76.69-0.85L76.69-0.85Q76.29-0.45 75.84 0 75.39 0.45 75.19 0.55L75.19 0.55 73.99 0.55 70.54-12.35Q69.99-14.5 69.37-16.32 68.74-18.15 68.09-19.28 67.44-20.4 66.64-20.4L66.64-20.4Q65.84-20.4 65.09-20.13 64.34-19.85 63.49-19.35L63.49-19.35 63.04-20.55Q64.39-21.5 66.12-22.48 67.84-23.45 69.29-23.45L69.29-23.45Q70.59-23.45 71.34-22.38 72.09-21.3 72.67-19.33 73.24-17.35 73.94-14.65L73.94-14.65Q74.24-13.55 74.64-11.78 75.04-10 75.52-8.25 75.99-6.5 76.47-5.3 76.94-4.1 77.34-4.1L77.34-4.1Q77.54-4.1 77.89-4.5 78.24-4.9 78.54-5.2L78.54-5.2Q79.79-6.7 81.02-8.43 82.24-10.15 83.07-12 83.89-13.85 83.89-15.6L83.89-15.6Q83.89-16.8 83.29-18.1 82.69-19.4 82.04-20.6L82.04-20.6Q81.99-20.65 81.99-20.85L81.99-20.85Q81.99-21.05 82.19-21.25ZM102.59-23.3L102.59-23.3Q103.79-23.3 105.27-22.85 106.74-22.4 107.94-21.55L107.94-21.55 110.59-23.1 110.84-22.85Q110.54-17.4 110.54-11.95L110.54-11.95Q110.54-10.8 110.47-9.2 110.39-7.6 110.49-6.1 110.59-4.6 111.04-3.6 111.49-2.6 112.49-2.6L112.49-2.6Q113.04-2.6 113.99-2.9 114.94-3.2 115.74-3.5L115.74-3.5 116.09-2.3Q115.09-1.7 113.94-1.03 112.79-0.35 111.69 0.13 110.59 0.6 109.79 0.6L109.79 0.6Q108.39 0.6 107.79-0.25 107.19-1.1 106.94-2.35L106.94-2.35 106.19-2.55Q104.34-1.35 102.29-0.38 100.24 0.6 98.04 0.6L98.04 0.6Q95.94 0.6 94.54-0.3 93.14-1.2 92.29-2.65 91.44-4.1 91.07-5.83 90.69-7.55 90.69-9.25L90.69-9.25Q90.69-11.9 91.37-14.4 92.04-16.9 93.47-18.93 94.89-20.95 97.14-22.13 99.39-23.3 102.59-23.3ZM101.54-2.7L101.54-2.7Q102.99-2.7 104.37-3.4 105.74-4.1 106.84-4.95L106.84-4.95 106.84-16.45Q106.84-17.45 106.74-18.35 106.64-19.25 106.04-19.9L106.04-19.9Q105.39-20.6 104.49-21.08 103.59-21.55 102.64-21.55L102.64-21.55Q99.89-21.55 97.89-19.65L97.89-19.65Q97.04-18.85 96.17-16.7 95.29-14.55 95.19-10.75L95.19-10.75Q95.14-9.2 95.44-7.63 95.74-6.05 96.59-4.75L96.59-4.75Q97.39-3.5 98.77-3.1 100.14-2.7 101.54-2.7ZM122.14-29.1L122.14-29.1 126.34-30.55 126.69-30.3Q126.49-28.15 126.34-26.18 126.19-24.2 126.14-22L126.14-22 126.44-21.75 132.84-21.75 133.09-21.55 132.69-20.25 132.39-20 126.44-20 126.14-19.7 126.14-10.25Q126.14-8.5 126.36-6.75 126.59-5 127.36-3.88 128.14-2.75 129.69-2.75L129.69-2.75Q130.64-2.75 131.89-3.43 133.14-4.1 134.24-4.8L134.24-4.8 134.84-4.7 135.19-3.95Q133.49-2.35 131.34-0.95 129.19 0.45 126.99 0.45L126.99 0.45Q126.14 0.45 125.11 0.13 124.09-0.2 123.39-1.1L123.39-1.1Q122.89-1.8 122.64-2.6 122.39-3.4 122.31-5.1 122.24-6.8 122.24-10.15L122.24-10.15 122.24-19.65 121.94-20 116.34-20 116.09-20.25 116.44-21.45 116.74-21.75 121.94-21.75 122.24-22.05Q122.24-23.95 122.24-26.05 122.24-28.15 122.14-29.1ZM157.24-17L157.24-17Q157.24-16.55 156.91-16.35 156.59-16.15 156.19-15.95L156.19-15.95 142.09-9.85Q142.24-8.3 142.91-6.65 143.59-5 144.96-3.9 146.34-2.8 148.54-2.8L148.54-2.8Q150.59-2.8 152.56-3.85 154.54-4.9 156.24-6.2L156.24-6.2 156.79-6.1 157.44-5.2Q155.89-3.75 154.06-2.43 152.24-1.1 150.21-0.25 148.19 0.6 146.04 0.6L146.04 0.6Q143.54 0.6 141.91-0.45 140.29-1.5 139.39-3.23 138.49-4.95 138.11-7.08 137.74-9.2 137.74-11.3L137.74-11.3Q137.74-13.5 138.29-15.6 138.84-17.7 140.29-19.4L140.29-19.4Q142.14-21.55 144.71-22.73 147.29-23.9 150.14-23.9L150.14-23.9Q153.39-23.9 155.31-21.9 157.24-19.9 157.24-17ZM148.39-21.9L148.39-21.9Q147.14-21.9 146.06-21.35 144.99-20.8 144.19-19.8L144.19-19.8Q142.74-18.25 142.31-16.55 141.89-14.85 141.89-13L141.89-13Q141.89-12.8 141.91-12.58 141.94-12.35 141.99-12.1L141.99-12.1 142.19-11.9 152.29-15.9Q152.54-16 152.74-16.3 152.94-16.6 152.94-17.2L152.94-17.2Q152.94-18.25 152.39-19.35 151.84-20.45 150.81-21.18 149.79-21.9 148.39-21.9ZM177.83 0.55L177.28 0.1Q177.38-3.65 177.41-7.43 177.43-11.2 177.43-14.95L177.43-14.95 169.98-29.7Q169.13-31.4 168.16-31.88 167.18-32.35 165.68-32.55L165.68-32.55 165.68-33.95 166.03-34.3 173.28-34.3 180.33-18.05Q180.38-18 180.56-17.82 180.73-17.65 180.93-17.65L180.93-17.65Q181.08-17.65 181.63-18.43 182.18-19.2 182.93-20.43 183.68-21.65 184.43-23L184.43-23Q184.58-23.25 185.33-24.55 186.08-25.85 187.11-27.6 188.13-29.35 189.16-31.05 190.18-32.75 190.83-33.8L190.83-33.8 195.08-34.65 195.28-33.75Q192.53-30.15 190.26-27.15 187.98-24.15 185.98-21.33 183.98-18.5 181.88-15.3L181.88-15.3 182.33-0.9 177.83 0.55ZM216.88-2.95L216.88-2.95Q215.13-0.95 212.6-0.13 210.08 0.7 207.43 0.7L207.43 0.7Q203.98 0.7 201.9-0.83 199.83-2.35 198.88-4.75 197.93-7.15 197.73-9.8L197.73-9.8Q197.73-12.4 198.2-15 198.68-17.6 200.48-19.55L200.48-19.55Q202.23-21.5 204.75-22.38 207.28-23.25 209.88-23.25L209.88-23.25Q213.58-23.25 215.73-21.6 217.88-19.95 218.83-17.35 219.78-14.75 219.78-11.95L219.78-11.95Q219.78-9.5 219.15-7.15 218.53-4.8 216.88-2.95ZM208.73-21.3L208.73-21.3Q206.73-21.3 204.93-19.95 203.13-18.6 202.43-15.8L202.43-15.8Q202.23-14.85 202.13-13.9 202.03-12.95 202.03-11.95L202.03-11.95Q202.03-10.4 202.33-8.55 202.63-6.7 203.35-5.08 204.08-3.45 205.4-2.4 206.73-1.35 208.78-1.35L208.78-1.35Q210.83-1.35 212.1-2.25 213.38-3.15 214.08-4.6 214.78-6.05 215.05-7.75 215.33-9.45 215.33-11L215.33-11Q215.33-12.55 215.08-14.33 214.83-16.1 214.15-17.7 213.48-19.3 212.15-20.3 210.83-21.3 208.73-21.3ZM253.53-5.35L253.53-5.35 253.93-5.25 254.48-4.3Q253.33-3.3 251.93-2.2 250.53-1.1 249.13-0.35 247.73 0.4 246.43 0.4L246.43 0.4Q244.73 0.4 243.93-0.63 243.13-1.65 242.98-3.2L242.98-3.2 242.58-3.25Q241.18-2.4 239.55-1.53 237.93-0.65 236.3-0.08 234.68 0.5 233.18 0.5L233.18 0.5Q231.03 0.5 229.9-0.45 228.78-1.4 228.35-2.8 227.93-4.2 227.93-5.6L227.93-5.6Q227.93-6.2 227.95-7.35 227.98-8.5 228.03-9.75 228.08-11 228.1-12.1 228.13-13.2 228.13-13.75L228.13-13.75Q228.13-16.05 228.05-17.23 227.98-18.4 227.8-18.93 227.63-19.45 227.28-19.8L227.28-19.8Q226.88-20.25 225.88-20.25L225.88-20.25Q225.38-20.25 224.28-19.75 223.18-19.25 222.33-18.75L222.33-18.75 221.68-19.75Q222.68-20.5 223.85-21.35 225.03-22.2 226.23-22.8 227.43-23.4 228.48-23.4L228.48-23.4Q230.38-23.4 231.03-22.35 231.68-21.3 231.73-18.88 231.78-16.45 231.78-12.2L231.78-12.2Q231.78-9.65 231.95-7.45 232.13-5.25 233.05-3.9 233.98-2.55 236.28-2.55L236.28-2.55Q237.98-2.55 239.68-3.43 241.38-4.3 242.83-5.2L242.83-5.2Q242.83-7.65 242.85-10.73 242.88-13.8 242.88-16.45L242.88-16.45Q242.88-18.2 242.88-19.58 242.88-20.95 242.83-21.75L242.83-21.75 246.68-23.5 247.33-22.95Q246.73-16 246.73-9.05L246.73-9.05Q246.73-7.55 246.83-6.23 246.93-4.9 247.45-4.08 247.98-3.25 249.18-3.25L249.18-3.25Q250.18-3.25 251.38-3.95 252.58-4.65 253.53-5.35ZM274.37-19.4L274.37-19.4 271.67-16.95 271.07-17.2Q270.87-18.25 270.27-19.18 269.67-20.1 268.42-20.1L268.42-20.1Q266.87-20.1 265.92-19.05 264.97-18 264.57-17L264.57-17Q264.22-16.2 264.17-14.7 264.12-13.2 264.17-11.53 264.22-9.85 264.22-8.5L264.22-8.5Q264.22-4.75 264.37-0.9L264.37-0.9 260.87 0.15 260.12-0.3Q260.37-2.95 260.55-6.05 260.72-9.15 260.72-12.15L260.72-12.15Q260.72-14.1 260.67-16.05 260.62-18 260.17-19.3 259.72-20.6 258.57-20.6L258.57-20.6Q257.72-20.6 256.67-20.1 255.62-19.6 254.67-19.05L254.67-19.05 254.07-19.9Q255.07-20.7 256.25-21.55 257.42-22.4 258.62-23.03 259.82-23.65 260.82-23.65L260.82-23.65Q262.52-23.65 263.37-22.65 264.22-21.65 264.42-20.05L264.42-20.05 264.92-19.85Q265.67-20.55 266.6-21.38 267.52-22.2 268.52-22.78 269.52-23.35 270.42-23.35L270.42-23.35Q273.97-23.35 274.37-19.4ZM298.92-18.9L298.92-18.9 298.87-18.5Q304.37-17.8 306.47-15.78 308.57-13.75 308.57-10.05L308.57-10.05Q308.57-7.15 307.37-5.2 306.17-3.25 304.22-2.1 302.27-0.95 299.92-0.45 297.57 0.05 295.32 0.05L295.32 0.05Q294.07 0.05 292.39 0.03 290.72 0 289.14 0 287.57 0 286.49-0.03 285.42-0.05 285.42-0.05L285.42-0.05 285.37-0.55Q285.87-1.3 286.12-1.53 286.37-1.75 286.44-2.2 286.52-2.65 286.52-4.05L286.52-4.05 286.52-30.55Q286.52-31.4 285.87-31.88 285.22-32.35 284.27-32.6 283.32-32.85 282.37-33.1L282.37-33.1 282.42-33.95 282.77-34.3 295.12-34.3Q297.22-34.3 299.27-34.02 301.32-33.75 302.97-33.02 304.62-32.3 305.59-31 306.57-29.7 306.57-27.65L306.57-27.65Q306.57-25.2 305.49-23.58 304.42-21.95 302.69-20.85 300.97-19.75 298.92-18.9ZM290.62-31.45L290.62-31.45 290.62-19.55Q290.72-19.2 291.14-19.13 291.57-19.05 292.32-19.05L292.32-19.05Q294.97-19.05 297.24-19.88 299.52-20.7 300.92-22.5 302.32-24.3 302.32-27.25L302.32-27.25Q302.32-29.35 301.19-30.45 300.07-31.55 298.24-31.98 296.42-32.4 294.27-32.4L294.27-32.4Q293.72-32.4 292.89-32.38 292.07-32.35 291.42-32.18 290.77-32 290.62-31.45ZM290.62-16.9L290.62-16.9 290.62-3.3Q290.62-2.45 291.24-2.2 291.87-1.95 294.37-1.95L294.37-1.95Q296.92-1.95 299.12-2.85 301.32-3.75 302.67-5.63 304.02-7.5 304.02-10.4L304.02-10.4Q304.02-12.65 303.12-14 302.22-15.35 300.74-16.07 299.27-16.8 297.44-17.05 295.62-17.3 293.72-17.3L293.72-17.3Q292.37-17.3 291.59-17.3 290.82-17.3 290.62-16.9ZM330.42-19.4L330.42-19.4 327.72-16.95 327.12-17.2Q326.92-18.25 326.32-19.18 325.72-20.1 324.47-20.1L324.47-20.1Q322.92-20.1 321.97-19.05 321.02-18 320.62-17L320.62-17Q320.27-16.2 320.22-14.7 320.17-13.2 320.22-11.53 320.27-9.85 320.27-8.5L320.27-8.5Q320.27-4.75 320.42-0.9L320.42-0.9 316.92 0.15 316.17-0.3Q316.42-2.95 316.59-6.05 316.77-9.15 316.77-12.15L316.77-12.15Q316.77-14.1 316.72-16.05 316.67-18 316.22-19.3 315.77-20.6 314.62-20.6L314.62-20.6Q313.77-20.6 312.72-20.1 311.67-19.6 310.72-19.05L310.72-19.05 310.12-19.9Q311.12-20.7 312.29-21.55 313.47-22.4 314.67-23.03 315.87-23.65 316.87-23.65L316.87-23.65Q318.57-23.65 319.42-22.65 320.27-21.65 320.47-20.05L320.47-20.05 320.97-19.85Q321.72-20.55 322.64-21.38 323.57-22.2 324.57-22.78 325.57-23.35 326.47-23.35L326.47-23.35Q330.02-23.35 330.42-19.4ZM343.81-23.3L343.81-23.3Q345.01-23.3 346.49-22.85 347.96-22.4 349.16-21.55L349.16-21.55 351.81-23.1 352.06-22.85Q351.76-17.4 351.76-11.95L351.76-11.95Q351.76-10.8 351.69-9.2 351.61-7.6 351.71-6.1 351.81-4.6 352.26-3.6 352.71-2.6 353.71-2.6L353.71-2.6Q354.26-2.6 355.21-2.9 356.16-3.2 356.96-3.5L356.96-3.5 357.31-2.3Q356.31-1.7 355.16-1.03 354.01-0.35 352.91 0.13 351.81 0.6 351.01 0.6L351.01 0.6Q349.61 0.6 349.01-0.25 348.41-1.1 348.16-2.35L348.16-2.35 347.41-2.55Q345.56-1.35 343.51-0.38 341.46 0.6 339.26 0.6L339.26 0.6Q337.16 0.6 335.76-0.3 334.36-1.2 333.51-2.65 332.66-4.1 332.29-5.83 331.91-7.55 331.91-9.25L331.91-9.25Q331.91-11.9 332.59-14.4 333.26-16.9 334.69-18.93 336.11-20.95 338.36-22.13 340.61-23.3 343.81-23.3ZM342.76-2.7L342.76-2.7Q344.21-2.7 345.59-3.4 346.96-4.1 348.06-4.95L348.06-4.95 348.06-16.45Q348.06-17.45 347.96-18.35 347.86-19.25 347.26-19.9L347.26-19.9Q346.61-20.6 345.71-21.08 344.81-21.55 343.86-21.55L343.86-21.55Q341.11-21.55 339.11-19.65L339.11-19.65Q338.26-18.85 337.39-16.7 336.51-14.55 336.41-10.75L336.41-10.75Q336.36-9.2 336.66-7.63 336.96-6.05 337.81-4.75L337.81-4.75Q338.61-3.5 339.99-3.1 341.36-2.7 342.76-2.7ZM367.06-0.9L367.06-0.9 363.56 0.3 362.81-0.05Q362.86-1 362.94-2.85 363.01-4.7 363.09-6.93 363.16-9.15 363.21-11.28 363.26-13.4 363.26-14.9L363.26-14.9Q363.26-17.4 362.96-19.03 362.66-20.65 361.41-20.65L361.41-20.65Q360.61-20.65 359.69-20.13 358.76-19.6 357.66-18.9L357.66-18.9 356.81-20Q357.86-20.75 359.06-21.58 360.26-22.4 361.46-22.98 362.66-23.55 363.56-23.55L363.56-23.55Q365.46-23.55 366.21-22.55 366.96-21.55 367.16-20.15L367.16-20.15 367.56-19.85Q369.66-21.15 372.14-22.3 374.61-23.45 377.01-23.45L377.01-23.45Q378.11-23.45 379.14-23.15 380.16-22.85 380.86-22L380.86-22Q381.36-21.4 381.56-19.83 381.76-18.25 381.81-16.32 381.86-14.4 381.86-12.8L381.86-12.8Q381.86-9.05 381.89-6.9 381.91-4.75 382.39-3.88 382.86-3 384.26-3L384.26-3Q385.11-3 386.21-3.65 387.31-4.3 388.26-5L388.26-5 388.91-5 389.36-3.95Q387.66-2.25 385.49-0.88 383.31 0.5 381.51 0.5L381.51 0.5Q379.46 0.5 378.69-0.8 377.91-2.1 377.91-3.9L377.91-3.9 378.16-12.45Q378.16-16.2 377.24-18.35 376.31-20.5 373.66-20.5L373.66-20.5Q371.96-20.5 370.26-19.53 368.56-18.55 367.21-17.45L367.21-17.45Q367.11-14.75 367.01-11.65 366.91-8.55 366.91-5.8L366.91-5.8Q366.91-4.75 366.96-3.58 367.01-2.4 367.06-0.9ZM402.31-31.9L402.31-31.9 402.26-33 402.51-33.2 410.66-34.2 411.06-33.75 411.06-5.5Q411.16-4.4 411.51-3.4 411.86-2.4 412.96-2.4L412.96-2.4Q413.36-2.4 414.31-2.73 415.26-3.05 416.01-3.35L416.01-3.35 416.41-2.2Q414.96-1.2 413.18-0.13 411.41 0.95 409.96 0.95L409.96 0.95Q408.51 0.95 407.81-0.23 407.11-1.4 407.01-2.7L407.01-2.7Q405.11-1.4 402.81-0.25 400.51 0.9 398.31 0.9L398.31 0.9Q396.16 0.9 394.73 0 393.31-0.9 392.46-2.38 391.61-3.85 391.23-5.6 390.86-7.35 390.86-9L390.86-9Q390.86-11.65 391.58-14.15 392.31-16.65 393.76-18.68 395.21-20.7 397.43-21.9 399.66-23.1 402.71-23.1L402.71-23.1Q403.81-23.1 404.83-22.9 405.86-22.7 406.86-22.35L406.86-22.35 407.21-22.55Q407.21-23.9 407.18-25.4 407.16-26.9 407.11-28.18 407.06-29.45 406.86-30.1L406.86-30.1Q406.61-31 405.83-31.38 405.06-31.75 404.11-31.83 403.16-31.9 402.31-31.9ZM407.01-4.75L407.01-4.75 407.21-15.5Q407.21-16.85 406.91-18.23 406.61-19.6 405.61-20.5 404.61-21.4 402.51-21.4L402.51-21.4Q400.41-21.4 399.01-20.33 397.61-19.25 396.76-17.55 395.91-15.85 395.56-13.88 395.21-11.9 395.21-10.15L395.21-10.15Q395.21-8.4 395.76-6.6 396.31-4.8 397.58-3.6 398.86-2.4 401.11-2.4L401.11-2.4Q402.41-2.4 404.21-3.08 406.01-3.75 407.01-4.75ZM457.1-20.8L457.1-20.8Q457.05-20.9 457.05-21.1L457.05-21.1Q457.05-21.4 457.15-21.45L457.15-21.45 460-23.2Q460.05-23.25 460.3-23.25L460.3-23.25Q460.95-23.25 461.43-22.3 461.9-21.35 462.18-20.2 462.45-19.05 462.45-18.45L462.45-18.45Q462.45-16.4 461.58-14.48 460.7-12.55 459.65-10.8L459.65-10.8Q457.95-8.05 455.95-5.53 453.95-3 451.75-0.65L451.75-0.65Q451.4-0.3 450.95 0.05 450.5 0.4 450 0.4L450 0.4Q449.6 0.4 449.2 0.05 448.8-0.3 448.7-0.65L448.7-0.65Q448.4-1.55 447.85-3.48 447.3-5.4 446.65-7.85 446-10.3 445.35-12.83 444.7-15.35 444.15-17.5L444.15-17.5Q444.1-17.65 444-17.82 443.9-18 443.7-18L443.7-18Q443.25-18 443.15-17.75L443.15-17.75Q441.05-13.9 438.65-9.3 436.25-4.7 434.2-0.25L434.2-0.25 432.1 0.4 431.75 0.1 430.55-11.1Q430.15-14.7 429.68-16.65 429.2-18.6 428.73-19.43 428.25-20.25 427.88-20.43 427.5-20.6 427.3-20.6L427.3-20.6Q426.45-20.6 425.3-20.1 424.15-19.6 423.15-19.05L423.15-19.05 422.7-20.05Q423.7-20.75 424.85-21.55 426-22.35 427.2-22.9 428.4-23.45 429.4-23.45L429.4-23.45Q430.75-23.45 431.53-22.68 432.3-21.9 432.7-20.8 433.1-19.7 433.3-18.65L433.3-18.65Q433.85-15.65 434.13-12.6 434.4-9.55 434.75-6.5L434.75-6.5 435.3-6.4Q437.45-10.25 439.55-14.18 441.65-18.1 443.6-22.05L443.6-22.05 446.2-23.35 446.8-23.2Q447.8-18.5 448.9-13.88 450-9.25 451.65-4.8L451.65-4.8Q451.75-4.55 452-4.3 452.25-4.05 452.55-4.05L452.55-4.05Q452.7-4.05 452.95-4.23 453.2-4.4 453.3-4.55L453.3-4.55Q454.6-6.15 455.9-7.93 457.2-9.7 458.1-11.65 459-13.6 459-15.6L459-15.6Q459-16.85 458.4-18.25 457.8-19.65 457.1-20.8ZM474.05-31.25L474.05-31.25Q474-30 473.13-29.23 472.25-28.45 471.05-28.45L471.05-28.45Q469.85-28.45 469-29.3 468.15-30.15 468.15-31.35L468.15-31.35Q468.15-32.65 469.2-33.4 470.25-34.15 471.35-34.15L471.35-34.15Q472.65-34.15 473.35-33.27 474.05-32.4 474.05-31.25ZM473.35-19.6L473.35-19.6 472.95-9.1Q472.95-6.35 473.4-4.8 473.85-3.25 475.15-3.25L475.15-3.25Q476.6-3.25 477.68-3.93 478.75-4.6 479.75-5.5L479.75-5.5 480.4-5 480.4-4.45Q479.55-3.35 478.43-2.23 477.3-1.1 476.03-0.35 474.75 0.4 473.35 0.4L473.35 0.4Q472.3 0.4 471.38 0.03 470.45-0.35 469.9-1.55 469.35-2.75 469.35-5.2L469.35-5.2 469.65-16.25Q469.65-18.2 469.28-19.35 468.9-20.5 467.9-20.5L467.9-20.5Q467.1-20.5 465.95-19.98 464.8-19.45 463.9-18.9L463.9-18.9 463.25-19.8Q464.95-21.15 466.88-22.35 468.8-23.55 470.25-23.55L470.25-23.55Q471.95-23.55 472.65-22.4 473.35-21.25 473.35-19.6ZM485.95-29.1L485.95-29.1 490.15-30.55 490.5-30.3Q490.3-28.15 490.15-26.18 490-24.2 489.95-22L489.95-22 490.25-21.75 496.65-21.75 496.9-21.55 496.5-20.25 496.2-20 490.25-20 489.95-19.7 489.95-10.25Q489.95-8.5 490.17-6.75 490.4-5 491.17-3.88 491.95-2.75 493.5-2.75L493.5-2.75Q494.45-2.75 495.7-3.43 496.95-4.1 498.05-4.8L498.05-4.8 498.65-4.7 499-3.95Q497.3-2.35 495.15-0.95 493 0.45 490.8 0.45L490.8 0.45Q489.95 0.45 488.92 0.13 487.9-0.2 487.2-1.1L487.2-1.1Q486.7-1.8 486.45-2.6 486.2-3.4 486.12-5.1 486.05-6.8 486.05-10.15L486.05-10.15 486.05-19.65 485.75-20 480.15-20 479.9-20.25 480.25-21.45 480.55-21.75 485.75-21.75 486.05-22.05Q486.05-23.95 486.05-26.05 486.05-28.15 485.95-29.1ZM524.1-3.1L524.1-3.1Q525.55-3.1 526.72-3.9 527.9-4.7 528.6-5.35L528.6-5.35 529.25-4.85 529.25-4.3Q527.6-2.55 525.62-1.03 523.65 0.5 521.4 0.5L521.4 0.5Q519.65 0.5 518.87-1.05 518.1-2.6 518.1-4.45L518.1-4.45Q518.1-5.8 518.15-7.53 518.2-9.25 518.25-10.83 518.3-12.4 518.3-13.3L518.3-13.3Q518.3-15.2 518-16.78 517.7-18.35 516.77-19.28 515.85-20.2 514-20.2L514-20.2Q511.95-20.2 510.15-19.23 508.35-18.25 506.9-17.2L506.9-17.2Q506.9-13.1 506.85-8.97 506.8-4.85 506.8-0.8L506.8-0.8 503.2 0.3 502.9-0.2Q503.15-5.15 503.35-10.1 503.55-15.05 503.6-20L503.6-20Q503.6-23.8 503.6-26.63 503.6-29.45 502.6-30.8L502.6-30.8Q502.25-31.25 501-31.58 499.75-31.9 498.75-32.1L498.75-32.1 498.75-33 499-33.2 506.9-34.05 507.2-33.7Q507.05-30.5 507.02-26.93 507-23.35 507-19.9L507-19.9 507.4-19.5Q509.6-20.85 512.15-22.08 514.7-23.3 517.45-23.3L517.45-23.3Q518-23.3 519-22.95 520-22.6 520.7-21.9L520.7-21.9Q521.85-20.85 521.87-18.43 521.9-16 521.9-13L521.9-13 521.9-9.3Q521.9-8.55 521.87-7.5 521.85-6.45 522-5.45 522.15-4.45 522.62-3.78 523.1-3.1 524.1-3.1ZM556.59-19.55L556.89-19.2 556.59-16.8Q555.14-16.9 553.64-17 552.14-17.1 550.69-17.1L550.69-17.1Q549.24-17.1 547.74-17.1 546.24-17.1 545.24-16.95 544.24-16.8 544.24-16.35L544.24-16.35 544.24-9.4Q544.24-8 544.37-6.38 544.49-4.75 544.99-3.8L544.99-3.8Q545.54-2.85 546.51-2.53 547.49-2.2 549.79-2.2L549.79-2.2Q550.69-2.2 551.49-2.23 552.29-2.25 553.44-2.3 554.59-2.35 556.51-2.5 558.44-2.65 561.49-2.9L561.49-2.9 561.74-2.65 561.09 0 541.69 0Q540.94-0.4 540.66-1.35 540.39-2.3 540.39-3.3L540.39-3.3 540.39-27.9Q540.39-28.45 540.34-29.4 540.29-30.35 539.94-31.1L539.94-31.1Q539.74-31.6 538.81-32.02 537.89-32.45 536.14-32.7L536.14-32.7 536.09-33.7 536.44-34.05 543.84-34.1Q545.59-34.1 547.74-34.18 549.89-34.25 552.04-34.33 554.19-34.4 555.94-34.4L555.94-34.4Q556.64-34.4 557.19-34.4 557.74-34.4 558.24-34.35L558.24-34.35 558.14-31.85 557.94-31.5Q556.64-31.6 554.91-31.68 553.19-31.75 551.54-31.83 549.89-31.9 548.76-31.95 547.64-32 547.49-32L547.49-32 545.49-32Q544.74-31.85 544.51-30.68 544.29-29.5 544.29-28.2L544.29-28.2 544.29-19.9Q544.29-19.25 545.24-19.23 546.19-19.2 547.59-19.2L547.59-19.2Q549.59-19.2 552.09-19.3 554.59-19.4 556.59-19.55L556.59-19.55ZM575.84-23.3L575.84-23.3Q577.04-23.3 578.51-22.85 579.99-22.4 581.19-21.55L581.19-21.55 583.84-23.1 584.09-22.85Q583.79-17.4 583.79-11.95L583.79-11.95Q583.79-10.8 583.71-9.2 583.64-7.6 583.74-6.1 583.84-4.6 584.29-3.6 584.74-2.6 585.74-2.6L585.74-2.6Q586.29-2.6 587.24-2.9 588.19-3.2 588.99-3.5L588.99-3.5 589.34-2.3Q588.34-1.7 587.19-1.03 586.04-0.35 584.94 0.13 583.84 0.6 583.04 0.6L583.04 0.6Q581.64 0.6 581.04-0.25 580.44-1.1 580.19-2.35L580.19-2.35 579.44-2.55Q577.59-1.35 575.54-0.38 573.49 0.6 571.29 0.6L571.29 0.6Q569.19 0.6 567.79-0.3 566.39-1.2 565.54-2.65 564.69-4.1 564.31-5.83 563.94-7.55 563.94-9.25L563.94-9.25Q563.94-11.9 564.61-14.4 565.29-16.9 566.71-18.93 568.14-20.95 570.39-22.13 572.64-23.3 575.84-23.3ZM574.79-2.7L574.79-2.7Q576.24-2.7 577.61-3.4 578.99-4.1 580.09-4.95L580.09-4.95 580.09-16.45Q580.09-17.45 579.99-18.35 579.89-19.25 579.29-19.9L579.29-19.9Q578.64-20.6 577.74-21.08 576.84-21.55 575.89-21.55L575.89-21.55Q573.14-21.55 571.14-19.65L571.14-19.65Q570.29-18.85 569.41-16.7 568.54-14.55 568.44-10.75L568.44-10.75Q568.39-9.2 568.69-7.63 568.99-6.05 569.84-4.75L569.84-4.75Q570.64-3.5 572.01-3.1 573.39-2.7 574.79-2.7ZM607.58-2.25L607.58-2.25 607.13-2.6Q605.18-1.5 603.06-0.48 600.93 0.55 598.58 0.55L598.58 0.55Q596.53 0.55 594.88-0.68 593.23-1.9 592.28-4.1 591.33-6.3 591.33-9.2L591.33-9.2Q591.33-13.65 592.86-16.8 594.38-19.95 596.98-21.6 599.58-23.25 602.78-23.25L602.78-23.25Q604.33-23.25 605.86-22.88 607.38-22.5 608.63-21.55L608.63-21.55 611.18-23 611.88-22.7Q611.78-21 611.71-19.33 611.63-17.65 611.56-15.6 611.48-13.55 611.46-10.78 611.43-8 611.43-4.1L611.43-4.1Q611.43-2.65 611.26-0.28 611.08 2.1 610.33 4.3L610.33 4.3Q609.73 5.95 608.58 7.18 607.43 8.4 606.68 8.95L606.68 8.95Q604.78 10.4 602.83 11.03 600.88 11.65 598.58 11.65L598.58 11.65Q596.93 11.65 595.23 11.1 593.53 10.55 591.68 8.85L591.68 8.85 594.13 5.75 594.83 5.75Q595.28 6.65 596.13 7.53 596.98 8.4 597.96 9 598.93 9.6 599.83 9.6L599.83 9.6Q602.48 9.6 604.16 8 605.83 6.4 606.66 3.7 607.48 1 607.58-2.25ZM607.58-4.95L607.58-4.95 607.58-18.15Q607.48-19.9 606.11-20.73 604.73-21.55 603.13-21.55L603.13-21.55Q600.93-21.55 599.48-20.43 598.03-19.3 597.18-17.53 596.33-15.75 595.98-13.8 595.63-11.85 595.63-10.15L595.63-10.15Q595.63-7.9 596.53-6.2 597.43-4.5 598.76-3.55 600.08-2.6 601.33-2.6L601.33-2.6Q602.48-2.6 603.71-3 604.93-3.4 605.98-3.95 607.03-4.5 607.58-4.95ZM629.33-5.6L629.33-5.6 629.88-5.6 630.43-5Q629.58-3.7 628.43-2.4 627.28-1.1 625.88-0.28 624.48 0.55 622.83 0.55L622.83 0.55Q621.58 0.55 620.66-0.03 619.73-0.6 619.23-2.13 618.73-3.65 618.73-6.5L618.73-6.5 619.08-25.4Q619.08-26.65 619.06-28.08 619.03-29.5 618.83-30.4L618.83-30.4Q618.68-31.2 617.93-31.48 617.18-31.75 616.23-31.8 615.28-31.85 614.48-31.9L614.48-31.9 614.48-33.05 614.78-33.3 623.03-34.3 623.33-33.95Q623.18-28.7 622.91-23.45 622.63-18.2 622.63-12.95L622.63-12.95Q622.63-10.5 622.61-8.3 622.58-6.1 623.06-4.73 623.53-3.35 625.03-3.25L625.03-3.25Q626.28-3.25 627.33-4.03 628.38-4.8 629.33-5.6ZM651.83-17L651.83-17Q651.83-16.55 651.5-16.35 651.18-16.15 650.78-15.95L650.78-15.95 636.68-9.85Q636.83-8.3 637.5-6.65 638.18-5 639.55-3.9 640.93-2.8 643.13-2.8L643.13-2.8Q645.18-2.8 647.15-3.85 649.13-4.9 650.83-6.2L650.83-6.2 651.38-6.1 652.03-5.2Q650.48-3.75 648.65-2.43 646.83-1.1 644.8-0.25 642.78 0.6 640.63 0.6L640.63 0.6Q638.13 0.6 636.5-0.45 634.88-1.5 633.98-3.23 633.08-4.95 632.7-7.08 632.33-9.2 632.33-11.3L632.33-11.3Q632.33-13.5 632.88-15.6 633.43-17.7 634.88-19.4L634.88-19.4Q636.73-21.55 639.3-22.73 641.88-23.9 644.73-23.9L644.73-23.9Q647.98-23.9 649.9-21.9 651.83-19.9 651.83-17ZM642.98-21.9L642.98-21.9Q641.73-21.9 640.65-21.35 639.58-20.8 638.78-19.8L638.78-19.8Q637.33-18.25 636.9-16.55 636.48-14.85 636.48-13L636.48-13Q636.48-12.8 636.5-12.58 636.53-12.35 636.58-12.1L636.58-12.1 636.78-11.9 646.88-15.9Q647.13-16 647.33-16.3 647.53-16.6 647.53-17.2L647.53-17.2Q647.53-18.25 646.98-19.35 646.43-20.45 645.4-21.18 644.38-21.9 642.98-21.9ZM674.07-16.55L674.07-16.55 673.97-16.15 687.12-1.35 687.12-0.9 682.17 0.4Q680.42-1.85 678.47-4.33 676.52-6.8 674.75-9.08 672.97-11.35 671.62-12.98 670.27-14.6 669.72-15.15L669.72-15.15Q669.27-15.6 668.72-15.6L668.72-15.6Q668.72-12 668.75-8.38 668.77-4.75 668.97-1.15L668.97-1.15 664.82 0.3 664.27-0.15Q664.57-5.6 664.65-11.05 664.72-16.5 664.72-21.95L664.72-21.95Q664.72-22.25 664.7-23.2 664.67-24.15 664.65-25.45 664.62-26.75 664.6-28.13 664.57-29.5 664.57-30.55L664.57-30.55Q664.57-31.35 663.7-31.85 662.82-32.35 661.9-32.58 660.97-32.8 660.72-32.8L660.72-32.8 660.77-33.65 661.07-33.95 674.67-33.95Q679.27-33.95 682.05-32.2 684.82-30.45 684.82-26.95L684.82-26.95Q684.82-23.5 683.37-21.3 681.92-19.1 679.5-18 677.07-16.9 674.07-16.55ZM668.67-18.5L668.67-18.5Q668.67-18.3 668.77-18.03 668.87-17.75 669.12-17.75L669.12-17.75Q671.87-17.75 674.35-18.6 676.82-19.45 678.37-21.33 679.92-23.2 679.92-26.15L679.92-26.15Q679.92-28.55 678.65-29.83 677.37-31.1 675.45-31.55 673.52-32 671.57-32L671.57-32 669.57-32Q669.02-32 668.97-30.7L668.97-30.7Q668.92-29.75 668.9-28.25 668.87-26.75 668.82-25.1 668.77-23.45 668.75-21.98 668.72-20.5 668.7-19.55 668.67-18.6 668.67-18.5ZM709.27-2.95L709.27-2.95Q707.52-0.95 705-0.13 702.47 0.7 699.82 0.7L699.82 0.7Q696.37 0.7 694.3-0.83 692.22-2.35 691.27-4.75 690.32-7.15 690.12-9.8L690.12-9.8Q690.12-12.4 690.6-15 691.07-17.6 692.87-19.55L692.87-19.55Q694.62-21.5 697.15-22.38 699.67-23.25 702.27-23.25L702.27-23.25Q705.97-23.25 708.12-21.6 710.27-19.95 711.22-17.35 712.17-14.75 712.17-11.95L712.17-11.95Q712.17-9.5 711.55-7.15 710.92-4.8 709.27-2.95ZM701.12-21.3L701.12-21.3Q699.12-21.3 697.32-19.95 695.52-18.6 694.82-15.8L694.82-15.8Q694.62-14.85 694.52-13.9 694.42-12.95 694.42-11.95L694.42-11.95Q694.42-10.4 694.72-8.55 695.02-6.7 695.75-5.08 696.47-3.45 697.8-2.4 699.12-1.35 701.17-1.35L701.17-1.35Q703.22-1.35 704.5-2.25 705.77-3.15 706.47-4.6 707.17-6.05 707.45-7.75 707.72-9.45 707.72-11L707.72-11Q707.72-12.55 707.47-14.33 707.22-16.1 706.55-17.7 705.87-19.3 704.55-20.3 703.22-21.3 701.12-21.3ZM735.82-5.8L735.82-5.8 736.27-5.7 736.82-4.8Q734.52-2.5 731.74-0.78 728.97 0.95 725.62 0.95L725.62 0.95Q722.57 0.95 720.82-0.18 719.07-1.3 718.24-3.1 717.42-4.9 717.19-6.95 716.97-9 716.97-10.85L716.97-10.85Q716.97-14.6 718.59-17.53 720.22-20.45 723.07-22.1 725.92-23.75 729.62-23.75L729.62-23.75Q732.07-23.75 733.64-22.38 735.22-21 735.42-18.85L735.42-18.85 732.72-16.2 731.87-16.5Q731.52-19 730.37-20.4 729.22-21.8 727.62-21.8L727.62-21.8Q725.52-21.8 724.07-20.38 722.62-18.95 721.87-16.78 721.12-14.6 721.12-12.4L721.12-12.4Q721.12-10.8 721.42-9.05 721.72-7.3 722.47-5.78 723.22-4.25 724.59-3.3 725.97-2.35 728.17-2.35L728.17-2.35Q730.37-2.35 732.27-3.38 734.17-4.4 735.82-5.8ZM745.02-33.95L745.02-13.3 745.67-13.3 752.37-19.45Q754.32-21.25 755.32-22.15 756.32-23.05 756.87-23.48 757.42-23.9 758.02-24.25L758.02-24.25 760.32-22.8 760.32-22.25Q757.52-20.6 754.84-18.7 752.17-16.8 749.67-14.7L749.67-14.7Q749.42-14.5 749.09-14.2 748.77-13.9 748.77-13.7L748.77-13.7Q748.77-13.5 748.92-13.3 749.07-13.1 749.17-12.9L749.17-12.9Q750.27-11.5 751.64-9.9 753.02-8.3 754.42-6.88 755.82-5.45 757.02-4.55 758.22-3.65 758.97-3.65L758.97-3.65Q760.22-3.65 761.14-4.2 762.07-4.75 762.87-5.6L762.87-5.6 763.82-4.6Q763.22-3.8 762.24-2.63 761.27-1.45 760.04-0.55 758.82 0.35 757.47 0.35L757.47 0.35Q756.37 0.35 755.57-0.18 754.77-0.7 753.52-2.1L753.52-2.1Q753.52-2.1 752.79-3.08 752.07-4.05 750.87-5.6 749.67-7.15 748.27-8.85 746.87-10.55 745.52-12.05L745.52-12.05 744.92-11.7 744.92-0.65 741.37 0.35 741.07 0Q741.22-5.9 741.44-11.7 741.67-17.5 741.67-23.4L741.67-23.4Q741.67-25.3 741.57-27 741.47-28.7 741.22-29.7L741.22-29.7Q740.87-30.85 739.89-31.28 738.92-31.7 736.92-31.9L736.92-31.9 736.92-32.95 737.17-33.15 745.17-34.3 745.02-33.95Z" opacity="1" transform="matrix(1,0,0,1,0,0)" fill="#000000" class="slogan-text-1" data-fill-palette-color="secondary" id="text-1"></path></svg></g></svg></g></svg></g></svg></g><g transform="matrix(1,0,0,1,135.97432989585047,0)"><svg viewBox="0 0 123.57134020829902 119.08596267733452" height="119.08596267733452" width="123.57134020829902"><g><svg xmlns="http://www.w3.org/2000/svg" xmlns:xlink="http://www.w3.org/1999/xlink" version="1.1" x="8" y="0" viewBox="9.563 5.234 80.875 89.53200000000001" enable-background="new 0 0 100 100" xml:space="preserve" height="119.08596267733452" width="107.57134020829902" class="icon-icon-0" data-fill-palette-color="accent" id="icon-0"><g fill="#ff0000" data-fill-palette-color="accent"><polygon points="32.422,26.658 31.843,31.444 33.256,33.87 37.052,34.224 39.932,31.797  " fill="#000000" data-fill-palette-color="accent"></polygon><g fill="#ff0000" data-fill-palette-color="accent"><polygon points="39.932,31.797 32.422,26.939 28.857,25.844 25.178,26.697 25.359,24.907 28.984,24.423 32.693,26.037     42.282,32.36 42.282,34.224   " fill="#000000" data-fill-palette-color="accent"></polygon></g><polygon points="67.577,26.658 68.158,31.444 66.745,33.87 62.948,34.224 60.068,31.797  " fill="#000000" data-fill-palette-color="accent"></polygon><g fill="#ff0000" data-fill-palette-color="accent"><polygon points="60.068,31.797 67.577,26.939 71.142,25.844 74.821,26.697 74.68,24.881 71.014,24.423 67.308,26.037     57.718,32.36 57.718,34.224   " fill="#000000" data-fill-palette-color="accent"></polygon></g><polygon points="55.646,33.175 50,28.281 44.352,33.175 43.957,38.824 46.807,36.126 50,30.929 53.192,36.126 56.044,38.824  " fill="#000000" data-fill-palette-color="accent"></polygon><polygon points="50,10.778 47.318,9.981 50,19.163 52.682,9.981  " fill="#000000" data-fill-palette-color="accent"></polygon><g fill="#ff0000" data-fill-palette-color="accent"><polygon points="40.721,43.632 44.427,47.65 46.555,48.772 46.191,47.278 40.992,42.321 34.016,39.751 36.723,43.632   " fill="#000000" data-fill-palette-color="accent"></polygon><polygon points="59.006,42.321 53.81,47.278 53.446,48.772 55.573,47.65 59.277,43.632 63.277,43.632 65.983,39.751   " fill="#000000" data-fill-palette-color="accent"></polygon><polygon points="55.983,40.515 52.573,36.867 50,30.929 47.427,36.867 44.016,40.515 41.251,40.81 34.016,39.751 41.869,41.735     46.979,46.749 50,60.319 53.022,46.749 58.131,41.735 65.983,39.751 58.748,40.81   " fill="#000000" data-fill-palette-color="accent"></polygon></g><path d="M78.07 18.811L60.068 6.075 49.997 5.234 39.932 6.075 21.93 18.811 9.563 64.02 49.987 94.766 90.438 64.02zM70.503 68.217L64.249 62.716 57.817 73.826 50 66.952 42.183 73.826 35.751 62.716 29.496 68.217 23.647 56.733 18.814 61.361 24.744 21.35 41.259 7.799 46.644 7.552 49.998 8.56 53.357 7.552 58.74 7.799 75.258 21.35 81.186 61.361 76.353 56.733z" fill="#000000" data-fill-palette-color="accent"></path></g></svg></g></svg></g><g><rect width="135.97432989585047" height="4.53761049486227" y="113.54835218247226" x="259.5456701041495" fill="#000000" data-fill-palette-color="accent"></rect><rect width="135.97432989585047" height="4.53761049486227" y="113.54835218247226" x="0" fill="#000000" data-fill-palette-color="accent"></rect><rect width="135.97432989585047" height="4.53761049486227" y="104.47313119274772" x="259.5456701041495" fill="#000000" data-fill-palette-color="accent"></rect><rect width="135.97432989585047" height="4.53761049486227" y="104.47313119274772" x="0" fill="#000000" data-fill-palette-color="accent"></rect></g></svg></g><defs></defs></svg><rect width="395.52" height="217.13381700227797" fill="none" stroke="none" visibility="hidden"></rect></g></svg></g></svg>